<svg width="363" height="126" viewBox="0 0 363 126" fill="none" xmlns="http://www.w3.org/2000/svg">
<path d="M97.0485 48.576C94.5845 48.576 92.4085 48.16 90.5205 47.328C88.6325 46.464 87.1445 45.248 86.0565 43.68C84.9685 42.08 84.4085 40.144 84.3765 37.872H90.8565C90.9205 39.44 91.4805 40.768 92.5365 41.856C93.6245 42.912 95.1125 43.44 97.0005 43.44C98.6325 43.44 99.9285 43.056 100.889 42.288C101.849 41.488 102.329 40.432 102.329 39.12C102.329 37.744 101.897 36.672 101.033 35.904C100.201 35.136 99.0805 34.512 97.6725 34.032C96.2645 33.552 94.7605 33.04 93.1605 32.496C90.5685 31.6 88.5845 30.448 87.2085 29.04C85.8645 27.632 85.1925 25.76 85.1925 23.424C85.1605 21.44 85.6245 19.744 86.5845 18.336C87.5765 16.896 88.9205 15.792 90.6165 15.024C92.3125 14.224 94.2645 13.824 96.4725 13.824C98.7125 13.824 100.681 14.224 102.377 15.024C104.105 15.824 105.449 16.944 106.409 18.384C107.401 19.824 107.929 21.536 107.993 23.52H101.417C101.385 22.336 100.921 21.296 100.025 20.4C99.1605 19.472 97.9445 19.008 96.3765 19.008C95.0325 18.976 93.8965 19.312 92.9685 20.016C92.0725 20.688 91.6245 21.68 91.6245 22.992C91.6245 24.112 91.9765 25.008 92.6805 25.68C93.3845 26.32 94.3445 26.864 95.5605 27.312C96.7765 27.76 98.1685 28.24 99.7365 28.752C101.401 29.328 102.921 30 104.297 30.768C105.673 31.536 106.777 32.56 107.609 33.84C108.441 35.088 108.857 36.704 108.857 38.688C108.857 40.448 108.409 42.08 107.513 43.584C106.617 45.088 105.289 46.304 103.529 47.232C101.769 48.128 99.6085 48.576 97.0485 48.576ZM122.281 48.576C120.233 48.576 118.553 48.256 117.241 47.616C115.929 46.944 114.953 46.064 114.313 44.976C113.673 43.888 113.353 42.688 113.353 41.376C113.353 39.168 114.217 37.376 115.945 36C117.673 34.624 120.265 33.936 123.721 33.936H129.769V33.36C129.769 31.728 129.305 30.528 128.377 29.76C127.449 28.992 126.297 28.608 124.921 28.608C123.673 28.608 122.585 28.912 121.657 29.52C120.729 30.096 120.153 30.96 119.929 32.112H113.929C114.089 30.384 114.665 28.88 115.657 27.6C116.681 26.32 117.993 25.344 119.593 24.672C121.193 23.968 122.985 23.616 124.969 23.616C128.361 23.616 131.033 24.464 132.985 26.16C134.937 27.856 135.913 30.256 135.913 33.36V48H130.681L130.105 44.16C129.401 45.44 128.409 46.496 127.129 47.328C125.881 48.16 124.265 48.576 122.281 48.576ZM123.673 43.776C125.433 43.776 126.793 43.2 127.753 42.048C128.745 40.896 129.369 39.472 129.625 37.776H124.393C122.761 37.776 121.593 38.08 120.889 38.688C120.185 39.264 119.833 39.984 119.833 40.848C119.833 41.776 120.185 42.496 120.889 43.008C121.593 43.52 122.521 43.776 123.673 43.776ZM141.776 48V24.192H147.2L147.68 28.224C148.416 26.816 149.472 25.696 150.848 24.864C152.256 24.032 153.904 23.616 155.792 23.616C158.736 23.616 161.024 24.544 162.656 26.4C164.288 28.256 165.104 30.976 165.104 34.56V48H158.96V35.136C158.96 33.088 158.544 31.52 157.712 30.432C156.88 29.344 155.584 28.8 153.824 28.8C152.096 28.8 150.672 29.408 149.552 30.624C148.464 31.84 147.92 33.536 147.92 35.712V48H141.776ZM181.059 40.896C179.907 40.896 178.835 40.768 177.843 40.512L176.067 42.288C176.611 42.576 177.347 42.816 178.275 43.008C179.203 43.2 180.707 43.392 182.787 43.584C185.955 43.872 188.259 44.624 189.699 45.84C191.139 47.056 191.859 48.736 191.859 50.88C191.859 52.288 191.475 53.616 190.707 54.864C189.939 56.144 188.755 57.168 187.155 57.936C185.555 58.736 183.507 59.136 181.011 59.136C177.619 59.136 174.883 58.496 172.803 57.216C170.723 55.968 169.683 54.08 169.683 51.552C169.683 49.408 170.723 47.552 172.803 45.984C172.163 45.696 171.603 45.392 171.123 45.072C170.675 44.752 170.275 44.416 169.923 44.064V42.96L174.099 38.544C172.243 36.912 171.315 34.816 171.315 32.256C171.315 30.656 171.699 29.2 172.467 27.888C173.267 26.576 174.387 25.536 175.827 24.768C177.267 24 179.011 23.616 181.059 23.616C182.403 23.616 183.651 23.808 184.803 24.192H193.827V27.936L189.747 28.224C190.387 29.44 190.707 30.784 190.707 32.256C190.707 33.856 190.323 35.312 189.555 36.624C188.787 37.936 187.667 38.976 186.195 39.744C184.755 40.512 183.043 40.896 181.059 40.896ZM181.059 36.192C182.307 36.192 183.331 35.856 184.131 35.184C184.963 34.512 185.379 33.552 185.379 32.304C185.379 31.056 184.963 30.096 184.131 29.424C183.331 28.752 182.307 28.416 181.059 28.416C179.747 28.416 178.691 28.752 177.891 29.424C177.091 30.096 176.691 31.056 176.691 32.304C176.691 33.552 177.091 34.512 177.891 35.184C178.691 35.856 179.747 36.192 181.059 36.192ZM175.299 50.928C175.299 52.112 175.843 52.992 176.931 53.568C178.051 54.176 179.411 54.48 181.011 54.48C182.547 54.48 183.795 54.16 184.755 53.52C185.715 52.912 186.195 52.08 186.195 51.024C186.195 50.16 185.875 49.44 185.235 48.864C184.627 48.288 183.395 47.936 181.539 47.808C180.227 47.712 179.011 47.568 177.891 47.376C176.963 47.888 176.291 48.448 175.875 49.056C175.491 49.664 175.299 50.288 175.299 50.928ZM208.388 40.896C207.236 40.896 206.164 40.768 205.172 40.512L203.396 42.288C203.94 42.576 204.676 42.816 205.604 43.008C206.532 43.2 208.036 43.392 210.116 43.584C213.284 43.872 215.588 44.624 217.028 45.84C218.468 47.056 219.188 48.736 219.188 50.88C219.188 52.288 218.804 53.616 218.036 54.864C217.268 56.144 216.084 57.168 214.484 57.936C212.884 58.736 210.836 59.136 208.34 59.136C204.948 59.136 202.212 58.496 200.132 57.216C198.052 55.968 197.012 54.08 197.012 51.552C197.012 49.408 198.052 47.552 200.132 45.984C199.492 45.696 198.932 45.392 198.452 45.072C198.004 44.752 197.604 44.416 197.252 44.064V42.96L201.428 38.544C199.572 36.912 198.644 34.816 198.644 32.256C198.644 30.656 199.028 29.2 199.796 27.888C200.596 26.576 201.716 25.536 203.156 24.768C204.596 24 206.34 23.616 208.388 23.616C209.732 23.616 210.98 23.808 212.132 24.192H221.156V27.936L217.076 28.224C217.716 29.44 218.036 30.784 218.036 32.256C218.036 33.856 217.652 35.312 216.884 36.624C216.116 37.936 214.996 38.976 213.524 39.744C212.084 40.512 210.372 40.896 208.388 40.896ZM208.388 36.192C209.636 36.192 210.66 35.856 211.46 35.184C212.292 34.512 212.708 33.552 212.708 32.304C212.708 31.056 212.292 30.096 211.46 29.424C210.66 28.752 209.636 28.416 208.388 28.416C207.076 28.416 206.02 28.752 205.22 29.424C204.42 30.096 204.02 31.056 204.02 32.304C204.02 33.552 204.42 34.512 205.22 35.184C206.02 35.856 207.076 36.192 208.388 36.192ZM202.628 50.928C202.628 52.112 203.172 52.992 204.26 53.568C205.38 54.176 206.74 54.48 208.34 54.48C209.876 54.48 211.124 54.16 212.084 53.52C213.044 52.912 213.524 52.08 213.524 51.024C213.524 50.16 213.204 49.44 212.564 48.864C211.956 48.288 210.724 47.936 208.868 47.808C207.556 47.712 206.34 47.568 205.22 47.376C204.292 47.888 203.62 48.448 203.204 49.056C202.82 49.664 202.628 50.288 202.628 50.928ZM233.844 48.576C231.796 48.576 230.116 48.256 228.804 47.616C227.492 46.944 226.516 46.064 225.876 44.976C225.236 43.888 224.916 42.688 224.916 41.376C224.916 39.168 225.78 37.376 227.508 36C229.236 34.624 231.828 33.936 235.284 33.936H241.332V33.36C241.332 31.728 240.868 30.528 239.94 29.76C239.012 28.992 237.86 28.608 236.484 28.608C235.236 28.608 234.148 28.912 233.22 29.52C232.292 30.096 231.716 30.96 231.492 32.112H225.492C225.652 30.384 226.228 28.88 227.22 27.6C228.244 26.32 229.556 25.344 231.156 24.672C232.756 23.968 234.548 23.616 236.532 23.616C239.924 23.616 242.596 24.464 244.548 26.16C246.5 27.856 247.476 30.256 247.476 33.36V48H242.244L241.668 44.16C240.964 45.44 239.972 46.496 238.692 47.328C237.444 48.16 235.828 48.576 233.844 48.576ZM235.236 43.776C236.996 43.776 238.356 43.2 239.316 42.048C240.308 40.896 240.932 39.472 241.188 37.776H235.956C234.324 37.776 233.156 38.08 232.452 38.688C231.748 39.264 231.396 39.984 231.396 40.848C231.396 41.776 231.748 42.496 232.452 43.008C233.156 43.52 234.084 43.776 235.236 43.776ZM253.339 48V24.192H258.811L259.387 28.656C260.251 27.12 261.419 25.904 262.891 25.008C264.395 24.08 266.155 23.616 268.171 23.616V30.096H266.443C265.099 30.096 263.899 30.304 262.843 30.72C261.787 31.136 260.955 31.856 260.347 32.88C259.771 33.904 259.483 35.328 259.483 37.152V48H253.339ZM1.43213 111L13.7201 77.4H20.6321L32.9201 111H26.3921L23.7041 103.224H10.6001L7.86413 111H1.43213ZM12.2801 98.424H22.0241L17.1281 84.456L12.2801 98.424ZM37.1044 111V87.192H42.5284L43.0084 91.224C43.7444 89.816 44.8004 88.696 46.1764 87.864C47.5844 87.032 49.2324 86.616 51.1204 86.616C54.0644 86.616 56.3524 87.544 57.9844 89.4C59.6164 91.256 60.4324 93.976 60.4324 97.56V111H54.2884V98.136C54.2884 96.088 53.8724 94.52 53.0404 93.432C52.2084 92.344 50.9124 91.8 49.1524 91.8C47.4244 91.8 46.0004 92.408 44.8804 93.624C43.7924 94.84 43.2484 96.536 43.2484 98.712V111H37.1044ZM76.3875 103.896C75.2355 103.896 74.1635 103.768 73.1715 103.512L71.3955 105.288C71.9395 105.576 72.6755 105.816 73.6035 106.008C74.5315 106.2 76.0355 106.392 78.1155 106.584C81.2835 106.872 83.5875 107.624 85.0275 108.84C86.4675 110.056 87.1875 111.736 87.1875 113.88C87.1875 115.288 86.8035 116.616 86.0355 117.864C85.2675 119.144 84.0835 120.168 82.4835 120.936C80.8835 121.736 78.8355 122.136 76.3395 122.136C72.9475 122.136 70.2115 121.496 68.1315 120.216C66.0515 118.968 65.0115 117.08 65.0115 114.552C65.0115 112.408 66.0515 110.552 68.1315 108.984C67.4915 108.696 66.9315 108.392 66.4515 108.072C66.0035 107.752 65.6035 107.416 65.2515 107.064V105.96L69.4275 101.544C67.5715 99.912 66.6435 97.816 66.6435 95.256C66.6435 93.656 67.0275 92.2 67.7955 90.888C68.5955 89.576 69.7155 88.536 71.1555 87.768C72.5955 87 74.3395 86.616 76.3875 86.616C77.7315 86.616 78.9795 86.808 80.1315 87.192H89.1555V90.936L85.0755 91.224C85.7155 92.44 86.0355 93.784 86.0355 95.256C86.0355 96.856 85.6515 98.312 84.8835 99.624C84.1155 100.936 82.9955 101.976 81.5235 102.744C80.0835 103.512 78.3715 103.896 76.3875 103.896ZM76.3875 99.192C77.6355 99.192 78.6595 98.856 79.4595 98.184C80.2915 97.512 80.7075 96.552 80.7075 95.304C80.7075 94.056 80.2915 93.096 79.4595 92.424C78.6595 91.752 77.6355 91.416 76.3875 91.416C75.0755 91.416 74.0195 91.752 73.2195 92.424C72.4195 93.096 72.0195 94.056 72.0195 95.304C72.0195 96.552 72.4195 97.512 73.2195 98.184C74.0195 98.856 75.0755 99.192 76.3875 99.192ZM70.6275 113.928C70.6275 115.112 71.1715 115.992 72.2595 116.568C73.3795 117.176 74.7395 117.48 76.3395 117.48C77.8755 117.48 79.1235 117.16 80.0835 116.52C81.0435 115.912 81.5235 115.08 81.5235 114.024C81.5235 113.16 81.2035 112.44 80.5635 111.864C79.9555 111.288 78.7235 110.936 76.8675 110.808C75.5555 110.712 74.3395 110.568 73.2195 110.376C72.2915 110.888 71.6195 111.448 71.2035 112.056C70.8195 112.664 70.6275 113.288 70.6275 113.928ZM103.716 103.896C102.564 103.896 101.492 103.768 100.5 103.512L98.7236 105.288C99.2676 105.576 100.004 105.816 100.932 106.008C101.86 106.2 103.364 106.392 105.444 106.584C108.612 106.872 110.916 107.624 112.356 108.84C113.796 110.056 114.516 111.736 114.516 113.88C114.516 115.288 114.132 116.616 113.364 117.864C112.596 119.144 111.412 120.168 109.812 120.936C108.212 121.736 106.164 122.136 103.668 122.136C100.276 122.136 97.5396 121.496 95.4596 120.216C93.3796 118.968 92.3396 117.08 92.3396 114.552C92.3396 112.408 93.3796 110.552 95.4596 108.984C94.8196 108.696 94.2596 108.392 93.7796 108.072C93.3316 107.752 92.9316 107.416 92.5796 107.064V105.96L96.7556 101.544C94.8996 99.912 93.9716 97.816 93.9716 95.256C93.9716 93.656 94.3556 92.2 95.1236 90.888C95.9236 89.576 97.0436 88.536 98.4836 87.768C99.9236 87 101.668 86.616 103.716 86.616C105.06 86.616 106.308 86.808 107.46 87.192H116.484V90.936L112.404 91.224C113.044 92.44 113.364 93.784 113.364 95.256C113.364 96.856 112.98 98.312 112.212 99.624C111.444 100.936 110.324 101.976 108.852 102.744C107.412 103.512 105.7 103.896 103.716 103.896ZM103.716 99.192C104.964 99.192 105.988 98.856 106.788 98.184C107.62 97.512 108.036 96.552 108.036 95.304C108.036 94.056 107.62 93.096 106.788 92.424C105.988 91.752 104.964 91.416 103.716 91.416C102.404 91.416 101.348 91.752 100.548 92.424C99.7476 93.096 99.3476 94.056 99.3476 95.304C99.3476 96.552 99.7476 97.512 100.548 98.184C101.348 98.856 102.404 99.192 103.716 99.192ZM97.9556 113.928C97.9556 115.112 98.4996 115.992 99.5876 116.568C100.708 117.176 102.068 117.48 103.668 117.48C105.204 117.48 106.452 117.16 107.412 116.52C108.372 115.912 108.852 115.08 108.852 114.024C108.852 113.16 108.532 112.44 107.892 111.864C107.284 111.288 106.052 110.936 104.196 110.808C102.884 110.712 101.668 110.568 100.548 110.376C99.6196 110.888 98.9476 111.448 98.5316 112.056C98.1476 112.664 97.9556 113.288 97.9556 113.928ZM129.892 111.576C126.916 111.576 124.612 110.648 122.98 108.792C121.38 106.936 120.58 104.216 120.58 100.632V87.192H126.676V100.056C126.676 102.104 127.092 103.672 127.924 104.76C128.756 105.848 130.068 106.392 131.86 106.392C133.556 106.392 134.948 105.784 136.036 104.568C137.156 103.352 137.716 101.656 137.716 99.48V87.192H143.86V111H138.436L137.956 106.968C137.22 108.376 136.148 109.496 134.74 110.328C133.364 111.16 131.748 111.576 129.892 111.576ZM150.167 111V87.192H155.591L156.071 91.224C156.807 89.816 157.863 88.696 159.239 87.864C160.647 87.032 162.295 86.616 164.183 86.616C167.127 86.616 169.415 87.544 171.047 89.4C172.679 91.256 173.495 93.976 173.495 97.56V111H167.351V98.136C167.351 96.088 166.935 94.52 166.103 93.432C165.271 92.344 163.975 91.8 162.215 91.8C160.487 91.8 159.063 92.408 157.943 93.624C156.855 94.84 156.311 96.536 156.311 98.712V111H150.167ZM190.952 111V77.4H204.44C207.928 77.4 210.584 78.216 212.408 79.848C214.264 81.448 215.192 83.512 215.192 86.04C215.192 88.152 214.616 89.848 213.464 91.128C212.344 92.376 210.968 93.224 209.336 93.672C211.256 94.056 212.84 95.016 214.088 96.552C215.336 98.056 215.96 99.816 215.96 101.832C215.96 104.488 215 106.68 213.08 108.408C211.16 110.136 208.44 111 204.92 111H190.952ZM197.096 91.512H203.528C205.256 91.512 206.584 91.112 207.512 90.312C208.44 89.512 208.904 88.376 208.904 86.904C208.904 85.496 208.44 84.392 207.512 83.592C206.616 82.76 205.256 82.344 203.432 82.344H197.096V91.512ZM197.096 106.008H203.96C205.784 106.008 207.192 105.592 208.184 104.76C209.208 103.896 209.72 102.696 209.72 101.16C209.72 99.592 209.192 98.36 208.136 97.464C207.08 96.568 205.656 96.12 203.864 96.12H197.096V106.008ZM229.297 111.576C227.249 111.576 225.569 111.256 224.257 110.616C222.945 109.944 221.969 109.064 221.329 107.976C220.689 106.888 220.369 105.688 220.369 104.376C220.369 102.168 221.233 100.376 222.961 99C224.689 97.624 227.281 96.936 230.737 96.936H236.785V96.36C236.785 94.728 236.321 93.528 235.393 92.76C234.465 91.992 233.313 91.608 231.937 91.608C230.689 91.608 229.601 91.912 228.673 92.52C227.745 93.096 227.169 93.96 226.945 95.112H220.945C221.105 93.384 221.681 91.88 222.673 90.6C223.697 89.32 225.009 88.344 226.609 87.672C228.209 86.968 230.001 86.616 231.985 86.616C235.377 86.616 238.049 87.464 240.001 89.16C241.953 90.856 242.929 93.256 242.929 96.36V111H237.697L237.121 107.16C236.417 108.44 235.425 109.496 234.145 110.328C232.897 111.16 231.281 111.576 229.297 111.576ZM230.689 106.776C232.449 106.776 233.809 106.2 234.769 105.048C235.761 103.896 236.385 102.472 236.641 100.776H231.409C229.777 100.776 228.609 101.08 227.905 101.688C227.201 102.264 226.849 102.984 226.849 103.848C226.849 104.776 227.201 105.496 227.905 106.008C228.609 106.52 229.537 106.776 230.689 106.776ZM248.792 111V87.192H254.216L254.744 90.408C255.512 89.256 256.52 88.344 257.768 87.672C259.048 86.968 260.52 86.616 262.184 86.616C265.864 86.616 268.472 88.04 270.008 90.888C270.872 89.576 272.024 88.536 273.464 87.768C274.936 87 276.536 86.616 278.264 86.616C281.368 86.616 283.752 87.544 285.416 89.4C287.08 91.256 287.912 93.976 287.912 97.56V111H281.768V98.136C281.768 96.088 281.368 94.52 280.568 93.432C279.8 92.344 278.6 91.8 276.968 91.8C275.304 91.8 273.96 92.408 272.936 93.624C271.944 94.84 271.448 96.536 271.448 98.712V111H265.304V98.136C265.304 96.088 264.904 94.52 264.104 93.432C263.304 92.344 262.072 91.8 260.408 91.8C258.776 91.8 257.448 92.408 256.424 93.624C255.432 94.84 254.936 96.536 254.936 98.712V111H248.792ZM307.857 111.576C306.065 111.576 304.497 111.24 303.153 110.568C301.809 109.896 300.721 108.952 299.889 107.736L299.217 111H293.745V76.44H299.889V90.6C300.657 89.544 301.665 88.616 302.913 87.816C304.193 87.016 305.841 86.616 307.857 86.616C310.097 86.616 312.097 87.16 313.857 88.248C315.617 89.336 317.009 90.824 318.033 92.712C319.057 94.6 319.569 96.744 319.569 99.144C319.569 101.544 319.057 103.688 318.033 105.576C317.009 107.432 315.617 108.904 313.857 109.992C312.097 111.048 310.097 111.576 307.857 111.576ZM306.561 106.2C308.513 106.2 310.129 105.544 311.409 104.232C312.689 102.92 313.329 101.224 313.329 99.144C313.329 97.064 312.689 95.352 311.409 94.008C310.129 92.664 308.513 91.992 306.561 91.992C304.577 91.992 302.945 92.664 301.665 94.008C300.417 95.32 299.793 97.016 299.793 99.096C299.793 101.176 300.417 102.888 301.665 104.232C302.945 105.544 304.577 106.2 306.561 106.2ZM333.986 111.576C331.01 111.576 328.706 110.648 327.074 108.792C325.474 106.936 324.674 104.216 324.674 100.632V87.192H330.77V100.056C330.77 102.104 331.186 103.672 332.018 104.76C332.85 105.848 334.162 106.392 335.954 106.392C337.65 106.392 339.042 105.784 340.13 104.568C341.25 103.352 341.81 101.656 341.81 99.48V87.192H347.954V111H342.53L342.05 106.968C341.314 108.376 340.242 109.496 338.834 110.328C337.458 111.16 335.842 111.576 333.986 111.576ZM356.901 111.336C355.781 111.336 354.853 110.984 354.117 110.28C353.413 109.576 353.061 108.728 353.061 107.736C353.061 106.712 353.413 105.848 354.117 105.144C354.853 104.44 355.781 104.088 356.901 104.088C358.021 104.088 358.933 104.44 359.637 105.144C360.373 105.848 360.741 106.712 360.741 107.736C360.741 108.728 360.373 109.576 359.637 110.28C358.933 110.984 358.021 111.336 356.901 111.336Z" fill="black"/>
</svg>
