<svg width="368" height="70" viewBox="0 0 368 70" fill="none" xmlns="http://www.w3.org/2000/svg">
<path d="M96.505 22.355C96.505 23.6617 96.2483 24.8517 95.735 25.925C95.245 26.975 94.5683 27.885 93.705 28.655C92.865 29.425 91.8617 30.02 90.695 30.44C89.5517 30.86 88.315 31.07 86.985 31.07C86.0517 31.07 85.1183 30.825 84.185 30.335C83.2517 29.8217 82.3533 29.0167 81.49 27.92L84.08 22.845C84.2433 23.1483 84.4883 23.4633 84.815 23.79C85.1417 24.0933 85.5033 24.3617 85.9 24.595C86.32 24.8283 86.7283 25.0267 87.125 25.19C87.545 25.33 87.9183 25.4 88.245 25.4C88.525 25.4 88.8167 25.3533 89.12 25.26C89.4233 25.1667 89.7033 25.0267 89.96 24.84C90.2167 24.6533 90.415 24.4433 90.555 24.21C90.7183 23.9533 90.8 23.6617 90.8 23.335C90.8 22.775 90.6133 22.2617 90.24 21.795C89.89 21.305 89.4467 20.85 88.91 20.43C88.3733 19.9867 87.79 19.5433 87.16 19.1C86.53 18.6567 85.9467 18.19 85.41 17.7C84.8967 17.21 84.4533 16.6617 84.08 16.055C83.7067 15.4483 83.52 14.7717 83.52 14.025C83.52 12.8117 83.8817 11.68 84.605 10.63C85.3283 9.58 86.2267 8.68167 87.3 7.935C88.3967 7.165 89.5867 6.55833 90.87 6.115C92.1533 5.67167 93.3667 5.45 94.51 5.45C95.14 5.45 95.735 5.53167 96.295 5.695C96.855 5.835 97.3333 6.08 97.73 6.43C98.15 6.75667 98.4767 7.17667 98.71 7.69C98.9667 8.20333 99.095 8.845 99.095 9.615C99.095 9.94167 99.06 10.2683 98.99 10.595C98.9433 10.9217 98.8967 11.2717 98.85 11.645L93.775 13.115C93.8217 12.9283 93.8567 12.7417 93.88 12.555C93.9267 12.3683 93.95 12.1817 93.95 11.995C93.95 11.295 93.8217 10.7933 93.565 10.49C93.3317 10.1633 93.0167 10 92.62 10C92.4333 10 92.2 10.07 91.92 10.21C91.6633 10.35 91.395 10.5367 91.115 10.77C90.8583 10.98 90.6367 11.2367 90.45 11.54C90.2633 11.8433 90.17 12.17 90.17 12.52C90.17 13.08 90.3217 13.5467 90.625 13.92C90.9517 14.2933 91.3483 14.6433 91.815 14.97C92.2817 15.2967 92.7833 15.635 93.32 15.985C93.88 16.3117 94.3933 16.7433 94.86 17.28C95.3267 17.8167 95.7117 18.4933 96.015 19.31C96.3417 20.1033 96.505 21.1183 96.505 22.355ZM96.3191 31.035L100.904 6.15L111.964 5.205C111.801 5.71833 111.661 6.24333 111.544 6.78C111.427 7.22333 111.311 7.69 111.194 8.18C111.101 8.64667 111.019 9.06667 110.949 9.44C110.716 9.46333 110.377 9.48667 109.934 9.51C109.514 9.51 109.059 9.52167 108.569 9.545C108.079 9.545 107.577 9.545 107.064 9.545C106.574 9.545 106.142 9.545 105.769 9.545L104.544 15.81C105.267 15.7633 105.944 15.7283 106.574 15.705C107.087 15.6817 107.612 15.67 108.149 15.67C108.686 15.67 109.082 15.6583 109.339 15.635C109.246 16.2883 109.152 16.93 109.059 17.56C108.989 18.19 108.896 18.8317 108.779 19.485C108.546 19.5083 108.161 19.5317 107.624 19.555C107.111 19.555 106.586 19.5667 106.049 19.59C105.442 19.6133 104.777 19.6367 104.054 19.66L102.864 26.1L107.974 25.295L107.624 29.285L96.3191 31.035ZM108.213 31.035C108.913 27.7683 109.566 24.595 110.173 21.515C110.406 20.185 110.651 18.8083 110.908 17.385C111.164 15.9617 111.398 14.55 111.608 13.15C111.841 11.75 112.039 10.3967 112.203 9.09C112.389 7.76 112.529 6.55833 112.623 5.485C113.159 5.53166 113.766 5.57833 114.443 5.625C115.119 5.64833 115.749 5.68333 116.333 5.73C117.033 5.77667 117.733 5.8 118.433 5.8C118.409 5.89333 118.374 6.06833 118.328 6.325C118.281 6.58167 118.223 6.89667 118.153 7.27C118.083 7.62 118.001 8.01666 117.908 8.46C117.838 8.90333 117.756 9.34667 117.663 9.79C117.476 10.8167 117.266 11.9717 117.033 13.255L117.243 13.22C117.476 12.8467 117.803 12.3333 118.223 11.68C118.666 11.0033 119.121 10.2917 119.588 9.545C120.054 8.79833 120.509 8.08667 120.953 7.41C121.396 6.71 121.769 6.115 122.073 5.625C123.239 5.53167 124.406 5.42667 125.573 5.31C126.739 5.19333 127.906 5.04167 129.073 4.855C127.976 6.325 126.914 7.77167 125.888 9.195C125.444 9.80167 124.989 10.4317 124.523 11.085C124.079 11.7383 123.636 12.38 123.193 13.01C122.749 13.64 122.329 14.2467 121.933 14.83C121.559 15.4133 121.221 15.95 120.918 16.44C121.431 18.7967 122.038 21.0717 122.738 23.265C123.438 25.4583 124.149 27.6983 124.873 29.985C124.336 29.9617 123.788 29.95 123.228 29.95C122.668 29.9267 122.119 29.915 121.583 29.915C120.906 29.915 120.253 29.9267 119.623 29.95C118.993 29.95 118.339 29.9617 117.663 29.985C117.453 28.4683 117.219 26.8817 116.963 25.225C116.729 23.545 116.508 21.9467 116.298 20.43L115.668 21.165C115.504 21.865 115.318 22.7283 115.108 23.755C114.921 24.7817 114.734 25.7733 114.548 26.73C114.338 27.85 114.116 29.005 113.883 30.195L108.213 31.035ZM143.735 12.065C143.735 13.9783 143.525 15.7867 143.105 17.49C142.708 19.17 142.171 20.7217 141.495 22.145C140.818 23.545 140.025 24.805 139.115 25.925C138.228 27.0217 137.295 27.9667 136.315 28.76C135.335 29.53 134.343 30.125 133.34 30.545C132.336 30.9417 131.38 31.14 130.47 31.14C129.7 31.14 129 31 128.37 30.72C127.74 30.4167 127.191 29.985 126.725 29.425C126.258 28.8417 125.885 28.1067 125.605 27.22C125.348 26.31 125.22 25.225 125.22 23.965C125.22 22.6583 125.383 21.2817 125.71 19.835C126.036 18.3883 126.48 16.9533 127.04 15.53C127.6 14.1067 128.288 12.7533 129.105 11.47C129.921 10.1867 130.82 9.055 131.8 8.075C132.78 7.07167 133.83 6.27833 134.95 5.695C136.07 5.11167 137.236 4.82 138.45 4.82C139.5 4.82 140.363 5.04167 141.04 5.485C141.74 5.905 142.276 6.465 142.65 7.165C143.046 7.84167 143.326 8.61167 143.49 9.475C143.653 10.3383 143.735 11.2017 143.735 12.065ZM130.435 23.055C130.435 23.3117 130.481 23.58 130.575 23.86C130.668 24.14 130.796 24.385 130.96 24.595C131.123 24.805 131.321 24.9917 131.555 25.155C131.811 25.295 132.08 25.365 132.36 25.365C133.41 25.365 134.343 25.0033 135.16 24.28C135.976 23.5567 136.653 22.67 137.19 21.62C137.726 20.57 138.135 19.45 138.415 18.26C138.718 17.07 138.87 15.985 138.87 15.005C138.87 14.725 138.846 14.4217 138.8 14.095C138.776 13.7683 138.706 13.465 138.59 13.185C138.496 12.905 138.333 12.6717 138.1 12.485C137.89 12.275 137.598 12.17 137.225 12.17C136.478 12.17 135.79 12.3567 135.16 12.73C134.53 13.1033 133.958 13.605 133.445 14.235C132.955 14.8417 132.523 15.5417 132.15 16.335C131.776 17.105 131.45 17.8983 131.17 18.715C130.913 19.5083 130.726 20.29 130.61 21.06C130.493 21.83 130.435 22.495 130.435 23.055ZM151.056 29.88C150.332 29.88 149.562 29.9033 148.746 29.95C147.952 29.9967 147.147 30.0667 146.331 30.16C145.514 30.2533 144.709 30.3817 143.916 30.545C143.146 30.685 142.446 30.86 141.816 31.07C141.956 30.02 142.119 28.8533 142.306 27.57C142.492 26.2867 142.702 24.9567 142.936 23.58C143.192 22.2033 143.437 20.815 143.671 19.415C143.927 18.015 144.184 16.6733 144.441 15.39C145.024 12.3333 145.642 9.21833 146.296 6.045L152.421 5.24C151.791 7.94667 151.184 10.5833 150.601 13.15C150.344 14.2467 150.087 15.39 149.831 16.58C149.574 17.7467 149.329 18.89 149.096 20.01C148.862 21.13 148.652 22.215 148.466 23.265C148.279 24.315 148.127 25.2483 148.011 26.065C148.594 26.0183 149.212 25.995 149.866 25.995C150.542 25.9717 151.137 25.96 151.651 25.96C151.674 26.4033 151.709 26.8467 151.756 27.29C151.802 27.71 151.849 28.095 151.896 28.445C151.966 28.795 152.012 29.11 152.036 29.39C152.082 29.6467 152.117 29.8217 152.141 29.915C151.954 29.915 151.767 29.915 151.581 29.915C151.417 29.8917 151.242 29.88 151.056 29.88ZM164.837 30.3C164.254 30.3933 163.612 30.4983 162.912 30.615C162.212 30.7317 161.582 30.8367 161.022 30.93C161.115 30.16 161.209 29.4017 161.302 28.655C161.372 28.0017 161.43 27.3483 161.477 26.695C161.547 26.0417 161.605 25.4817 161.652 25.015H158.607L157.207 30.055C156.694 30.125 156.087 30.2067 155.387 30.3C154.687 30.37 154.034 30.44 153.427 30.51C152.68 30.6033 151.945 30.6967 151.222 30.79C152.155 27.6867 153.077 24.63 153.987 21.62C154.36 20.36 154.745 19.0417 155.142 17.665C155.562 16.2883 155.97 14.9233 156.367 13.57C156.787 12.1933 157.184 10.875 157.557 9.615C157.93 8.355 158.257 7.2 158.537 6.15C160.124 6.03333 161.734 5.89333 163.367 5.73C165.024 5.56667 166.634 5.345 168.197 5.065C168.127 5.81166 168.045 6.745 167.952 7.865C167.882 8.96167 167.812 10.1633 167.742 11.47C167.672 12.7767 167.602 14.1417 167.532 15.565C167.462 16.9883 167.392 18.3883 167.322 19.765C167.205 22.985 167.077 26.4033 166.937 30.02C166.237 30.1367 165.537 30.23 164.837 30.3ZM159.447 21.515C159.54 21.515 159.704 21.515 159.937 21.515C160.194 21.4917 160.45 21.48 160.707 21.48C160.987 21.4567 161.244 21.445 161.477 21.445C161.71 21.4217 161.874 21.3983 161.967 21.375C161.967 21.235 161.979 21.0017 162.002 20.675C162.049 20.325 162.084 19.94 162.107 19.52C162.154 19.0767 162.2 18.5983 162.247 18.085C162.294 17.5717 162.34 17.07 162.387 16.58C162.48 15.39 162.597 14.1067 162.737 12.73L162.947 9.685L162.422 9.72L161.617 12.73L159.447 21.515ZM167.379 31.07C168.032 27.8033 168.662 24.6183 169.269 21.515C169.502 20.185 169.747 18.8083 170.004 17.385C170.26 15.9383 170.494 14.515 170.704 13.115C170.937 11.715 171.147 10.3617 171.334 9.055C171.544 7.725 171.707 6.52333 171.824 5.45C172.36 5.47333 172.85 5.50833 173.294 5.555C173.76 5.57833 174.215 5.60167 174.659 5.625C175.102 5.64833 175.545 5.67167 175.989 5.695C176.455 5.695 176.957 5.695 177.494 5.695C177.097 7.35167 176.7 9.00833 176.304 10.665C175.93 12.3217 175.58 13.99 175.254 15.67L178.719 15.285C179.045 13.6283 179.337 12.03 179.594 10.49C179.85 8.92667 180.189 7.31666 180.609 5.66C181.145 5.56667 181.74 5.49667 182.394 5.45C183.047 5.38 183.654 5.32167 184.214 5.275C184.774 5.22833 185.24 5.19333 185.614 5.17C186.01 5.12333 186.209 5.1 186.209 5.1C185.882 6.15 185.567 7.305 185.264 8.565C184.984 9.80167 184.704 11.0967 184.424 12.45C184.144 13.78 183.875 15.1333 183.619 16.51C183.362 17.8867 183.129 19.1933 182.919 20.43C182.405 23.3933 181.927 26.4267 181.484 29.53L176.024 30.16C176.327 28.76 176.595 27.395 176.829 26.065C177.062 24.945 177.295 23.7783 177.529 22.565C177.785 21.3517 177.984 20.3133 178.124 19.45L174.729 19.765C174.565 20.6517 174.367 21.6783 174.134 22.845C173.924 24.0117 173.725 25.12 173.539 26.17C173.282 27.43 173.025 28.69 172.769 29.95L167.379 31.07ZM202.264 30.3C201.68 30.3933 201.039 30.4983 200.339 30.615C199.639 30.7317 199.009 30.8367 198.449 30.93C198.542 30.16 198.635 29.4017 198.729 28.655C198.799 28.0017 198.857 27.3483 198.904 26.695C198.974 26.0417 199.032 25.4817 199.079 25.015H196.034L194.634 30.055C194.12 30.125 193.514 30.2067 192.814 30.3C192.114 30.37 191.46 30.44 190.854 30.51C190.107 30.6033 189.372 30.6967 188.649 30.79C189.582 27.6867 190.504 24.63 191.414 21.62C191.787 20.36 192.172 19.0417 192.569 17.665C192.989 16.2883 193.397 14.9233 193.794 13.57C194.214 12.1933 194.61 10.875 194.984 9.615C195.357 8.355 195.684 7.2 195.964 6.15C197.55 6.03333 199.16 5.89333 200.794 5.73C202.45 5.56667 204.06 5.345 205.624 5.065C205.554 5.81166 205.472 6.745 205.379 7.865C205.309 8.96167 205.239 10.1633 205.169 11.47C205.099 12.7767 205.029 14.1417 204.959 15.565C204.889 16.9883 204.819 18.3883 204.749 19.765C204.632 22.985 204.504 26.4033 204.364 30.02C203.664 30.1367 202.964 30.23 202.264 30.3ZM196.874 21.515C196.967 21.515 197.13 21.515 197.364 21.515C197.62 21.4917 197.877 21.48 198.134 21.48C198.414 21.4567 198.67 21.445 198.904 21.445C199.137 21.4217 199.3 21.3983 199.394 21.375C199.394 21.235 199.405 21.0017 199.429 20.675C199.475 20.325 199.51 19.94 199.534 19.52C199.58 19.0767 199.627 18.5983 199.674 18.085C199.72 17.5717 199.767 17.07 199.814 16.58C199.907 15.39 200.024 14.1067 200.164 12.73L200.374 9.685L199.849 9.72L199.044 12.73L196.874 21.515ZM214.185 29.88C213.462 29.88 212.692 29.9033 211.875 29.95C211.082 29.9967 210.277 30.0667 209.46 30.16C208.644 30.2533 207.839 30.3817 207.045 30.545C206.275 30.685 205.575 30.86 204.945 31.07C205.085 30.02 205.249 28.8533 205.435 27.57C205.622 26.2867 205.832 24.9567 206.065 23.58C206.322 22.2033 206.567 20.815 206.8 19.415C207.057 18.015 207.314 16.6733 207.57 15.39C208.154 12.3333 208.772 9.21833 209.425 6.045L215.55 5.24C214.92 7.94667 214.314 10.5833 213.73 13.15C213.474 14.2467 213.217 15.39 212.96 16.58C212.704 17.7467 212.459 18.89 212.225 20.01C211.992 21.13 211.782 22.215 211.595 23.265C211.409 24.315 211.257 25.2483 211.14 26.065C211.724 26.0183 212.342 25.995 212.995 25.995C213.672 25.9717 214.267 25.96 214.78 25.96C214.804 26.4033 214.839 26.8467 214.885 27.29C214.932 27.71 214.979 28.095 215.025 28.445C215.095 28.795 215.142 29.11 215.165 29.39C215.212 29.6467 215.247 29.8217 215.27 29.915C215.084 29.915 214.897 29.915 214.71 29.915C214.547 29.8917 214.372 29.88 214.185 29.88ZM227.967 30.3C227.384 30.3933 226.742 30.4983 226.042 30.615C225.342 30.7317 224.712 30.8367 224.152 30.93C224.245 30.16 224.339 29.4017 224.432 28.655C224.502 28.0017 224.56 27.3483 224.607 26.695C224.677 26.0417 224.735 25.4817 224.782 25.015H221.737L220.337 30.055C219.824 30.125 219.217 30.2067 218.517 30.3C217.817 30.37 217.164 30.44 216.557 30.51C215.81 30.6033 215.075 30.6967 214.352 30.79C215.285 27.6867 216.207 24.63 217.117 21.62C217.49 20.36 217.875 19.0417 218.272 17.665C218.692 16.2883 219.1 14.9233 219.497 13.57C219.917 12.1933 220.314 10.875 220.687 9.615C221.06 8.355 221.387 7.2 221.667 6.15C223.254 6.03333 224.864 5.89333 226.497 5.73C228.154 5.56667 229.764 5.345 231.327 5.065C231.257 5.81166 231.175 6.745 231.082 7.865C231.012 8.96167 230.942 10.1633 230.872 11.47C230.802 12.7767 230.732 14.1417 230.662 15.565C230.592 16.9883 230.522 18.3883 230.452 19.765C230.335 22.985 230.207 26.4033 230.067 30.02C229.367 30.1367 228.667 30.23 227.967 30.3ZM222.577 21.515C222.67 21.515 222.834 21.515 223.067 21.515C223.324 21.4917 223.58 21.48 223.837 21.48C224.117 21.4567 224.374 21.445 224.607 21.445C224.84 21.4217 225.004 21.3983 225.097 21.375C225.097 21.235 225.109 21.0017 225.132 20.675C225.179 20.325 225.214 19.94 225.237 19.52C225.284 19.0767 225.33 18.5983 225.377 18.085C225.424 17.5717 225.47 17.07 225.517 16.58C225.61 15.39 225.727 14.1067 225.867 12.73L226.077 9.685L225.552 9.72L224.747 12.73L222.577 21.515ZM229.179 30.79C230.205 27.6867 231.185 24.6417 232.119 21.655C232.515 20.395 232.924 19.0767 233.344 17.7C233.764 16.3233 234.184 14.9583 234.604 13.605C235.024 12.2517 235.409 10.945 235.759 9.685C236.132 8.425 236.459 7.25833 236.739 6.185C238.022 6.185 239.235 6.115 240.379 5.975C241.522 5.835 242.759 5.70667 244.089 5.59C244.019 6.10333 243.937 6.68666 243.844 7.34C243.774 7.97 243.68 8.635 243.564 9.335C243.47 10.035 243.365 10.7583 243.249 11.505C243.132 12.2517 242.992 13.2083 242.829 14.375C242.665 15.5417 242.444 17 242.164 18.75H242.619C243.295 16.9767 243.855 15.5067 244.299 14.34C244.742 13.15 245.104 12.1817 245.384 11.435C245.664 10.6883 245.944 9.965 246.224 9.265C246.527 8.54167 246.807 7.865 247.064 7.235C247.344 6.58167 247.6 6.01 247.834 5.52C248.417 5.47333 248.965 5.415 249.479 5.345C249.992 5.275 250.505 5.205 251.019 5.135C251.532 5.04167 252.045 4.96 252.559 4.89C253.095 4.79666 253.679 4.69166 254.309 4.575C254.075 5.92833 253.854 7.31667 253.644 8.74C253.434 10.1633 253.247 11.5867 253.084 13.01C252.92 14.41 252.757 15.7983 252.594 17.175C252.454 18.5517 252.325 19.8583 252.209 21.095C251.929 23.9883 251.684 26.8117 251.474 29.565L245.384 30.65C245.384 30.5333 245.395 30.2183 245.419 29.705C245.465 29.1917 245.512 28.5617 245.559 27.815C245.629 27.0683 245.71 26.24 245.804 25.33C245.92 24.42 246.025 23.51 246.119 22.6C246.235 21.69 246.352 20.815 246.469 19.975C246.585 19.1117 246.702 18.3767 246.819 17.77H246.504C246.177 18.75 245.815 19.7883 245.419 20.885C245.022 21.9583 244.614 23.055 244.194 24.175C243.797 25.295 243.4 26.3917 243.004 27.465C242.607 28.5383 242.257 29.565 241.954 30.545C241.137 30.5683 240.437 30.6033 239.854 30.65C239.27 30.6733 238.594 30.7083 237.824 30.755L238.944 17.77H238.419C238.372 18.0733 238.255 18.5867 238.069 19.31C237.882 20.01 237.66 20.8267 237.404 21.76C237.17 22.67 236.914 23.6267 236.634 24.63C236.354 25.61 236.085 26.5317 235.829 27.395C235.595 28.235 235.397 28.935 235.234 29.495C235.07 30.0317 234.977 30.335 234.954 30.405L229.179 30.79ZM84.15 68.035C84.6867 65.4683 85.2 62.9367 85.69 60.44C85.9 59.39 86.11 58.2933 86.32 57.15C86.53 56.0067 86.7283 54.8867 86.915 53.79C87.125 52.67 87.3 51.5967 87.44 50.57C87.6033 49.52 87.7433 48.5633 87.86 47.7C87.3233 47.63 86.775 47.6067 86.215 47.63C85.6783 47.6533 85.1417 47.5833 84.605 47.42C84.6283 47.0467 84.64 46.615 84.64 46.125C84.64 45.635 84.6517 45.145 84.675 44.655C84.6983 44.1183 84.7217 43.5467 84.745 42.94C85.3517 42.9867 85.9583 43.0217 86.565 43.045C87.1717 43.0683 87.7783 43.08 88.385 43.08C89.575 43.08 90.7183 43.0567 91.815 43.01C92.935 42.94 93.9617 42.87 94.895 42.8C95.8517 42.7067 96.785 42.6017 97.695 42.485L97.31 44.375C97.1933 44.9117 97.0767 45.46 96.96 46.02C96.8667 46.58 96.7733 47.0583 96.68 47.455C96.1667 47.595 95.6417 47.7 95.105 47.77C94.5917 47.8167 94.0783 47.8867 93.565 47.98C93.4017 48.7733 93.2267 49.66 93.04 50.64C92.8533 51.5967 92.6667 52.6 92.48 53.65C92.3167 54.6767 92.1533 55.7267 91.99 56.8C91.8267 57.8733 91.6633 58.9 91.5 59.88C91.1267 62.19 90.7767 64.5817 90.45 67.055L84.15 68.035ZM106.561 67.3C105.977 67.3933 105.336 67.4983 104.636 67.615C103.936 67.7317 103.306 67.8367 102.746 67.93C102.839 67.16 102.932 66.4017 103.026 65.655C103.096 65.0017 103.154 64.3483 103.201 63.695C103.271 63.0417 103.329 62.4817 103.376 62.015H100.331L98.9307 67.055C98.4173 67.125 97.8107 67.2067 97.1107 67.3C96.4107 67.37 95.7573 67.44 95.1507 67.51C94.404 67.6033 93.669 67.6967 92.9457 67.79C93.879 64.6867 94.8007 61.63 95.7107 58.62C96.084 57.36 96.469 56.0417 96.8657 54.665C97.2857 53.2883 97.694 51.9233 98.0907 50.57C98.5107 49.1933 98.9073 47.875 99.2807 46.615C99.654 45.355 99.9807 44.2 100.261 43.15C101.847 43.0333 103.457 42.8933 105.091 42.73C106.747 42.5667 108.357 42.345 109.921 42.065C109.851 42.8117 109.769 43.745 109.676 44.865C109.606 45.9617 109.536 47.1633 109.466 48.47C109.396 49.7767 109.326 51.1417 109.256 52.565C109.186 53.9883 109.116 55.3883 109.046 56.765C108.929 59.985 108.801 63.4033 108.661 67.02C107.961 67.1367 107.261 67.23 106.561 67.3ZM101.171 58.515C101.264 58.515 101.427 58.515 101.661 58.515C101.917 58.4917 102.174 58.48 102.431 58.48C102.711 58.4567 102.967 58.445 103.201 58.445C103.434 58.4217 103.597 58.3983 103.691 58.375C103.691 58.235 103.702 58.0017 103.726 57.675C103.772 57.325 103.807 56.94 103.831 56.52C103.877 56.0767 103.924 55.5983 103.971 55.085C104.017 54.5717 104.064 54.07 104.111 53.58C104.204 52.39 104.321 51.1067 104.461 49.73L104.671 46.685L104.146 46.72L103.341 49.73L101.171 58.515ZM109.102 68.07C109.756 64.8033 110.386 61.6183 110.992 58.515C111.226 57.185 111.471 55.8083 111.727 54.385C111.984 52.9383 112.217 51.515 112.427 50.115C112.661 48.715 112.871 47.3617 113.057 46.055C113.267 44.725 113.431 43.5233 113.547 42.45C114.084 42.4733 114.574 42.5083 115.017 42.555C115.484 42.5783 115.939 42.6017 116.382 42.625C116.826 42.6483 117.269 42.6717 117.712 42.695C118.179 42.695 118.681 42.695 119.217 42.695C118.821 44.3517 118.424 46.0083 118.027 47.665C117.654 49.3217 117.304 50.99 116.977 52.67L120.442 52.285C120.769 50.6283 121.061 49.03 121.317 47.49C121.574 45.9267 121.912 44.3167 122.332 42.66C122.869 42.5667 123.464 42.4967 124.117 42.45C124.771 42.38 125.377 42.3217 125.937 42.275C126.497 42.2283 126.964 42.1933 127.337 42.17C127.734 42.1233 127.932 42.1 127.932 42.1C127.606 43.15 127.291 44.305 126.987 45.565C126.707 46.8017 126.427 48.0967 126.147 49.45C125.867 50.78 125.599 52.1333 125.342 53.51C125.086 54.8867 124.852 56.1933 124.642 57.43C124.129 60.3933 123.651 63.4267 123.207 66.53L117.747 67.16C118.051 65.76 118.319 64.395 118.552 63.065C118.786 61.945 119.019 60.7783 119.252 59.565C119.509 58.3517 119.707 57.3133 119.847 56.45L116.452 56.765C116.289 57.6517 116.091 58.6783 115.857 59.845C115.647 61.0117 115.449 62.12 115.262 63.17C115.006 64.43 114.749 65.69 114.492 66.95L109.102 68.07ZM128.576 67.16C127.923 67.2767 127.211 67.4167 126.441 67.58C125.671 67.7433 124.995 67.895 124.411 68.035C124.691 67.0317 124.96 65.9117 125.216 64.675C125.496 63.415 125.765 62.0967 126.021 60.72C126.301 59.3433 126.558 57.955 126.791 56.555C127.048 55.1317 127.293 53.7667 127.526 52.46C128.016 49.3567 128.506 46.1483 128.996 42.835L140.721 42.24L139.706 46.545H134.211L133.126 52.775C133.85 52.7517 134.538 52.74 135.191 52.74C135.728 52.74 136.276 52.74 136.836 52.74C137.396 52.74 137.828 52.7283 138.131 52.705C138.061 53.3583 137.968 54 137.851 54.63C137.758 55.26 137.665 55.89 137.571 56.52C137.268 56.52 136.836 56.52 136.276 56.52C135.716 56.4967 135.133 56.4733 134.526 56.45C133.943 56.4267 133.278 56.4033 132.531 56.38L130.921 66.705C130.128 66.845 129.346 66.9967 128.576 67.16ZM142.15 67.3C141.94 67.3 141.52 67.335 140.89 67.405C140.284 67.4517 139.654 67.5217 139 67.615C138.347 67.685 137.752 67.755 137.215 67.825C136.702 67.895 136.422 67.9417 136.375 67.965C136.609 66.9617 136.842 65.8533 137.075 64.64C137.332 63.4033 137.589 62.12 137.845 60.79C138.102 59.4367 138.347 58.0717 138.58 56.695C138.814 55.3183 139.035 53.9883 139.245 52.705C139.735 49.7183 140.225 46.65 140.715 43.5L146.175 42.625C145.639 45.7517 145.114 48.82 144.6 51.83C144.39 53.1133 144.169 54.4433 143.935 55.82C143.725 57.1967 143.504 58.5617 143.27 59.915C143.06 61.2683 142.862 62.5867 142.675 63.87C142.489 65.13 142.314 66.2733 142.15 67.3ZM158.36 66.6C158.15 66.6 157.707 66.6117 157.03 66.635C156.354 66.6583 155.549 66.6933 154.615 66.74C153.705 66.7867 152.714 66.845 151.64 66.915C150.567 66.985 149.517 67.0667 148.49 67.16C147.464 67.23 146.507 67.3117 145.62 67.405C144.757 67.4983 144.069 67.5917 143.555 67.685L143.59 62.575L153.53 49.03C153.134 49.03 152.574 49.0767 151.85 49.17C151.127 49.24 150.392 49.3217 149.645 49.415C148.922 49.5083 148.292 49.6017 147.755 49.695L146.915 49.765L147.58 44.27L161.895 43.255L160.985 48.085L151.43 61.665C151.897 61.665 152.515 61.6417 153.285 61.595C154.079 61.5483 154.895 61.5017 155.735 61.455C156.575 61.4083 157.485 61.35 158.465 61.28L158.36 66.6ZM158.629 68.07C159.282 64.8033 159.912 61.6183 160.519 58.515C160.752 57.185 160.997 55.8083 161.254 54.385C161.51 52.9383 161.744 51.515 161.954 50.115C162.187 48.715 162.397 47.3617 162.584 46.055C162.794 44.725 162.957 43.5233 163.074 42.45C163.61 42.4733 164.1 42.5083 164.544 42.555C165.01 42.5783 165.465 42.6017 165.909 42.625C166.352 42.6483 166.795 42.6717 167.239 42.695C167.705 42.695 168.207 42.695 168.744 42.695C168.347 44.3517 167.95 46.0083 167.554 47.665C167.18 49.3217 166.83 50.99 166.504 52.67L169.969 52.285C170.295 50.6283 170.587 49.03 170.844 47.49C171.1 45.9267 171.439 44.3167 171.859 42.66C172.395 42.5667 172.99 42.4967 173.644 42.45C174.297 42.38 174.904 42.3217 175.464 42.275C176.024 42.2283 176.49 42.1933 176.864 42.17C177.26 42.1233 177.459 42.1 177.459 42.1C177.132 43.15 176.817 44.305 176.514 45.565C176.234 46.8017 175.954 48.0967 175.674 49.45C175.394 50.78 175.125 52.1333 174.869 53.51C174.612 54.8867 174.379 56.1933 174.169 57.43C173.655 60.3933 173.177 63.4267 172.734 66.53L167.274 67.16C167.577 65.76 167.845 64.395 168.079 63.065C168.312 61.945 168.545 60.7783 168.779 59.565C169.035 58.3517 169.234 57.3133 169.374 56.45L165.979 56.765C165.815 57.6517 165.617 58.6783 165.384 59.845C165.174 61.0117 164.975 62.12 164.789 63.17C164.532 64.43 164.275 65.69 164.019 66.95L158.629 68.07ZM195.194 61.175C194.867 62.505 194.4 63.6367 193.794 64.57C193.21 65.5033 192.51 66.2733 191.694 66.88C190.9 67.4867 190.049 67.93 189.139 68.21C188.229 68.49 187.319 68.63 186.409 68.63C185.872 68.63 185.324 68.5367 184.764 68.35C184.204 68.1867 183.702 67.93 183.259 67.58C182.815 67.23 182.442 66.7867 182.139 66.25C181.859 65.7133 181.719 65.0833 181.719 64.36C181.719 64.2667 181.719 64.1733 181.719 64.08C181.719 63.9867 181.73 63.8933 181.754 63.8C181.847 62.8433 181.999 61.6883 182.209 60.335C182.419 58.9817 182.64 57.57 182.874 56.1C183.107 54.63 183.364 53.16 183.644 51.69C183.924 50.1967 184.169 48.8433 184.379 47.63C184.612 46.4167 184.81 45.4133 184.974 44.62C185.137 43.8033 185.242 43.3017 185.289 43.115C185.779 43.0683 186.362 43.01 187.039 42.94C187.715 42.87 188.345 42.8117 188.929 42.765C189.652 42.695 190.364 42.625 191.064 42.555C190.457 45.3783 189.92 47.9333 189.454 50.22C189.244 51.2 189.034 52.18 188.824 53.16C188.637 54.14 188.45 55.0383 188.264 55.855C188.1 56.6717 187.949 57.3833 187.809 57.99C187.692 58.5733 187.587 59.0517 187.494 59.425C187.424 59.7983 187.33 60.2767 187.214 60.86C187.12 61.42 187.074 61.9333 187.074 62.4C187.074 62.7733 187.167 63.0883 187.354 63.345C187.54 63.5783 187.774 63.695 188.054 63.695C188.45 63.695 188.777 63.5433 189.034 63.24C189.29 62.9133 189.5 62.5283 189.664 62.085C189.85 61.6417 189.979 61.1983 190.049 60.755C190.142 60.2883 190.224 59.9267 190.294 59.67C190.434 58.9933 190.585 58.2467 190.749 57.43C190.935 56.59 191.11 55.7267 191.274 54.84C191.46 53.93 191.635 53.0083 191.799 52.075C191.985 51.1417 192.16 50.2317 192.324 49.345C192.72 47.2917 193.105 45.1683 193.479 42.975L198.799 42.625C198.799 42.625 198.74 42.9283 198.624 43.535C198.507 44.1417 198.355 44.9467 198.169 45.95C197.982 46.9533 197.772 48.0967 197.539 49.38C197.329 50.6633 197.084 52.005 196.804 53.405C196.524 54.7817 196.244 56.1467 195.964 57.5C195.707 58.83 195.45 60.055 195.194 61.175ZM195.472 68.175C196.172 64.815 196.837 61.56 197.467 58.41C197.7 57.0567 197.945 55.6567 198.202 54.21C198.482 52.7633 198.739 51.34 198.972 49.94C199.205 48.5167 199.415 47.1633 199.602 45.88C199.789 44.5733 199.929 43.395 200.022 42.345C200.325 42.3683 200.582 42.38 200.792 42.38C201.002 42.38 201.247 42.38 201.527 42.38C201.854 42.38 202.25 42.38 202.717 42.38C203.184 42.3567 203.65 42.3333 204.117 42.31C204.584 42.2867 205.085 42.2633 205.622 42.24C205.949 43.8733 206.24 45.4483 206.497 46.965C206.754 48.295 207.01 49.66 207.267 51.06C207.547 52.46 207.792 53.65 208.002 54.63C208.095 54.1633 208.2 53.6267 208.317 53.02C208.434 52.39 208.562 51.7367 208.702 51.06C208.842 50.3833 208.97 49.7067 209.087 49.03C209.227 48.33 209.367 47.6417 209.507 46.965C209.834 45.4483 210.172 43.885 210.522 42.275L214.792 41.75C213.999 45.32 213.299 48.7033 212.692 51.9C212.412 53.2767 212.132 54.6767 211.852 56.1C211.595 57.5 211.35 58.8533 211.117 60.16C210.884 61.4433 210.685 62.645 210.522 63.765C210.359 64.8617 210.23 65.7833 210.137 66.53C210.067 66.53 209.787 66.5883 209.297 66.705C208.83 66.7983 208.282 66.915 207.652 67.055C207.045 67.195 206.427 67.335 205.797 67.475C205.19 67.615 204.735 67.7433 204.432 67.86C204.292 65.9933 204.14 64.22 203.977 62.54C203.907 61.8167 203.825 61.0817 203.732 60.335C203.662 59.565 203.58 58.83 203.487 58.13C203.394 57.43 203.3 56.7767 203.207 56.17C203.114 55.5633 203.02 55.0383 202.927 54.595C202.857 55.0383 202.764 55.5517 202.647 56.135C202.53 56.7183 202.414 57.3367 202.297 57.99C202.18 58.6433 202.064 59.3317 201.947 60.055C201.83 60.755 201.702 61.4317 201.562 62.085C201.259 63.6483 200.932 65.2817 200.582 66.985L195.472 68.175ZM230.162 54.665C229.999 57.045 229.532 59.1217 228.762 60.895C227.992 62.645 227.059 64.115 225.962 65.305C224.889 66.495 223.722 67.3817 222.462 67.965C221.225 68.5483 220.047 68.84 218.927 68.84C218.064 68.84 217.235 68.6533 216.442 68.28C215.672 67.9067 214.995 67.3467 214.412 66.6C213.852 65.83 213.409 64.8733 213.082 63.73C212.755 62.5867 212.592 61.245 212.592 59.705C212.592 56.695 213.024 54.07 213.887 51.83C214.75 49.59 215.835 47.7233 217.142 46.23C218.472 44.7367 219.884 43.6283 221.377 42.905C222.894 42.1817 224.305 41.82 225.612 41.82C226.545 41.82 227.35 41.9833 228.027 42.31C228.727 42.6367 229.299 43.08 229.742 43.64C230.185 44.1767 230.5 44.8183 230.687 45.565C230.897 46.2883 231.002 47.0583 231.002 47.875L226.207 48.785C225.997 47.8517 225.717 47.1867 225.367 46.79C225.017 46.3933 224.62 46.195 224.177 46.195C223.594 46.195 222.952 46.615 222.252 47.455C221.552 48.2717 220.899 49.3333 220.292 50.64C219.685 51.9467 219.172 53.3817 218.752 54.945C218.332 56.5083 218.099 58.0483 218.052 59.565C218.052 61.0117 218.262 62.05 218.682 62.68C219.125 63.2867 219.685 63.59 220.362 63.59C220.829 63.59 221.307 63.4733 221.797 63.24C222.31 63.0067 222.765 62.68 223.162 62.26C223.559 61.8167 223.885 61.315 224.142 60.755C224.422 60.1717 224.574 59.5417 224.597 58.865L220.852 59.425L221.517 55.96C222.614 55.82 223.687 55.68 224.737 55.54C225.624 55.4233 226.557 55.2833 227.537 55.12C228.54 54.9567 229.415 54.805 230.162 54.665ZM247.628 54.665C247.465 57.045 246.998 59.1217 246.228 60.895C245.458 62.645 244.525 64.115 243.428 65.305C242.355 66.495 241.188 67.3817 239.928 67.965C238.691 68.5483 237.513 68.84 236.393 68.84C235.53 68.84 234.701 68.6533 233.908 68.28C233.138 67.9067 232.461 67.3467 231.878 66.6C231.318 65.83 230.875 64.8733 230.548 63.73C230.221 62.5867 230.058 61.245 230.058 59.705C230.058 56.695 230.49 54.07 231.353 51.83C232.216 49.59 233.301 47.7233 234.608 46.23C235.938 44.7367 237.35 43.6283 238.843 42.905C240.36 42.1817 241.771 41.82 243.078 41.82C244.011 41.82 244.816 41.9833 245.493 42.31C246.193 42.6367 246.765 43.08 247.208 43.64C247.651 44.1767 247.966 44.8183 248.153 45.565C248.363 46.2883 248.468 47.0583 248.468 47.875L243.673 48.785C243.463 47.8517 243.183 47.1867 242.833 46.79C242.483 46.3933 242.086 46.195 241.643 46.195C241.06 46.195 240.418 46.615 239.718 47.455C239.018 48.2717 238.365 49.3333 237.758 50.64C237.151 51.9467 236.638 53.3817 236.218 54.945C235.798 56.5083 235.565 58.0483 235.518 59.565C235.518 61.0117 235.728 62.05 236.148 62.68C236.591 63.2867 237.151 63.59 237.828 63.59C238.295 63.59 238.773 63.4733 239.263 63.24C239.776 63.0067 240.231 62.68 240.628 62.26C241.025 61.8167 241.351 61.315 241.608 60.755C241.888 60.1717 242.04 59.5417 242.063 58.865L238.318 59.425L238.983 55.96C240.08 55.82 241.153 55.68 242.203 55.54C243.09 55.4233 244.023 55.2833 245.003 55.12C246.006 54.9567 246.881 54.805 247.628 54.665ZM260.614 61.175C260.287 62.505 259.82 63.6367 259.214 64.57C258.63 65.5033 257.93 66.2733 257.114 66.88C256.32 67.4867 255.469 67.93 254.559 68.21C253.649 68.49 252.739 68.63 251.829 68.63C251.292 68.63 250.744 68.5367 250.184 68.35C249.624 68.1867 249.122 67.93 248.679 67.58C248.235 67.23 247.862 66.7867 247.559 66.25C247.279 65.7133 247.139 65.0833 247.139 64.36C247.139 64.2667 247.139 64.1733 247.139 64.08C247.139 63.9867 247.15 63.8933 247.174 63.8C247.267 62.8433 247.419 61.6883 247.629 60.335C247.839 58.9817 248.06 57.57 248.294 56.1C248.527 54.63 248.784 53.16 249.064 51.69C249.344 50.1967 249.589 48.8433 249.799 47.63C250.032 46.4167 250.23 45.4133 250.394 44.62C250.557 43.8033 250.662 43.3017 250.709 43.115C251.199 43.0683 251.782 43.01 252.459 42.94C253.135 42.87 253.765 42.8117 254.349 42.765C255.072 42.695 255.784 42.625 256.484 42.555C255.877 45.3783 255.34 47.9333 254.874 50.22C254.664 51.2 254.454 52.18 254.244 53.16C254.057 54.14 253.87 55.0383 253.684 55.855C253.52 56.6717 253.369 57.3833 253.229 57.99C253.112 58.5733 253.007 59.0517 252.914 59.425C252.844 59.7983 252.75 60.2767 252.634 60.86C252.54 61.42 252.494 61.9333 252.494 62.4C252.494 62.7733 252.587 63.0883 252.774 63.345C252.96 63.5783 253.194 63.695 253.474 63.695C253.87 63.695 254.197 63.5433 254.454 63.24C254.71 62.9133 254.92 62.5283 255.084 62.085C255.27 61.6417 255.399 61.1983 255.469 60.755C255.562 60.2883 255.644 59.9267 255.714 59.67C255.854 58.9933 256.005 58.2467 256.169 57.43C256.355 56.59 256.53 55.7267 256.694 54.84C256.88 53.93 257.055 53.0083 257.219 52.075C257.405 51.1417 257.58 50.2317 257.744 49.345C258.14 47.2917 258.525 45.1683 258.899 42.975L264.219 42.625C264.219 42.625 264.16 42.9283 264.044 43.535C263.927 44.1417 263.775 44.9467 263.589 45.95C263.402 46.9533 263.192 48.0967 262.959 49.38C262.749 50.6633 262.504 52.005 262.224 53.405C261.944 54.7817 261.664 56.1467 261.384 57.5C261.127 58.83 260.87 60.055 260.614 61.175ZM270.377 66.88C269.653 66.88 268.883 66.9033 268.067 66.95C267.273 66.9967 266.468 67.0667 265.652 67.16C264.835 67.2533 264.03 67.3817 263.237 67.545C262.467 67.685 261.767 67.86 261.137 68.07C261.277 67.02 261.44 65.8533 261.627 64.57C261.813 63.2867 262.023 61.9567 262.257 60.58C262.513 59.2033 262.758 57.815 262.992 56.415C263.248 55.015 263.505 53.6733 263.762 52.39C264.345 49.3333 264.963 46.2183 265.617 43.045L271.742 42.24C271.112 44.9467 270.505 47.5833 269.922 50.15C269.665 51.2467 269.408 52.39 269.152 53.58C268.895 54.7467 268.65 55.89 268.417 57.01C268.183 58.13 267.973 59.215 267.787 60.265C267.6 61.315 267.448 62.2483 267.332 63.065C267.915 63.0183 268.533 62.995 269.187 62.995C269.863 62.9717 270.458 62.96 270.972 62.96C270.995 63.4033 271.03 63.8467 271.077 64.29C271.123 64.71 271.17 65.095 271.217 65.445C271.287 65.795 271.333 66.11 271.357 66.39C271.403 66.6467 271.438 66.8217 271.462 66.915C271.275 66.915 271.088 66.915 270.902 66.915C270.738 66.8917 270.563 66.88 270.377 66.88ZM284.158 67.3C283.575 67.3933 282.933 67.4983 282.233 67.615C281.533 67.7317 280.903 67.8367 280.343 67.93C280.437 67.16 280.53 66.4017 280.623 65.655C280.693 65.0017 280.752 64.3483 280.798 63.695C280.868 63.0417 280.927 62.4817 280.973 62.015H277.928L276.528 67.055C276.015 67.125 275.408 67.2067 274.708 67.3C274.008 67.37 273.355 67.44 272.748 67.51C272.002 67.6033 271.267 67.6967 270.543 67.79C271.477 64.6867 272.398 61.63 273.308 58.62C273.682 57.36 274.067 56.0417 274.463 54.665C274.883 53.2883 275.292 51.9233 275.688 50.57C276.108 49.1933 276.505 47.875 276.878 46.615C277.252 45.355 277.578 44.2 277.858 43.15C279.445 43.0333 281.055 42.8933 282.688 42.73C284.345 42.5667 285.955 42.345 287.518 42.065C287.448 42.8117 287.367 43.745 287.273 44.865C287.203 45.9617 287.133 47.1633 287.063 48.47C286.993 49.7767 286.923 51.1417 286.853 52.565C286.783 53.9883 286.713 55.3883 286.643 56.765C286.527 59.985 286.398 63.4033 286.258 67.02C285.558 67.1367 284.858 67.23 284.158 67.3ZM278.768 58.515C278.862 58.515 279.025 58.515 279.258 58.515C279.515 58.4917 279.772 58.48 280.028 58.48C280.308 58.4567 280.565 58.445 280.798 58.445C281.032 58.4217 281.195 58.3983 281.288 58.375C281.288 58.235 281.3 58.0017 281.323 57.675C281.37 57.325 281.405 56.94 281.428 56.52C281.475 56.0767 281.522 55.5983 281.568 55.085C281.615 54.5717 281.662 54.07 281.708 53.58C281.802 52.39 281.918 51.1067 282.058 49.73L282.268 46.685L281.743 46.72L280.938 49.73L278.768 58.515ZM286.595 68.175C287.295 64.815 287.96 61.56 288.59 58.41C288.823 57.0567 289.068 55.6567 289.325 54.21C289.605 52.7633 289.862 51.34 290.095 49.94C290.328 48.5167 290.538 47.1633 290.725 45.88C290.912 44.5733 291.052 43.395 291.145 42.345C291.448 42.3683 291.705 42.38 291.915 42.38C292.125 42.38 292.37 42.38 292.65 42.38C292.977 42.38 293.373 42.38 293.84 42.38C294.307 42.3567 294.773 42.3333 295.24 42.31C295.707 42.2867 296.208 42.2633 296.745 42.24C297.072 43.8733 297.363 45.4483 297.62 46.965C297.877 48.295 298.133 49.66 298.39 51.06C298.67 52.46 298.915 53.65 299.125 54.63C299.218 54.1633 299.323 53.6267 299.44 53.02C299.557 52.39 299.685 51.7367 299.825 51.06C299.965 50.3833 300.093 49.7067 300.21 49.03C300.35 48.33 300.49 47.6417 300.63 46.965C300.957 45.4483 301.295 43.885 301.645 42.275L305.915 41.75C305.122 45.32 304.422 48.7033 303.815 51.9C303.535 53.2767 303.255 54.6767 302.975 56.1C302.718 57.5 302.473 58.8533 302.24 60.16C302.007 61.4433 301.808 62.645 301.645 63.765C301.482 64.8617 301.353 65.7833 301.26 66.53C301.19 66.53 300.91 66.5883 300.42 66.705C299.953 66.7983 299.405 66.915 298.775 67.055C298.168 67.195 297.55 67.335 296.92 67.475C296.313 67.615 295.858 67.7433 295.555 67.86C295.415 65.9933 295.263 64.22 295.1 62.54C295.03 61.8167 294.948 61.0817 294.855 60.335C294.785 59.565 294.703 58.83 294.61 58.13C294.517 57.43 294.423 56.7767 294.33 56.17C294.237 55.5633 294.143 55.0383 294.05 54.595C293.98 55.0383 293.887 55.5517 293.77 56.135C293.653 56.7183 293.537 57.3367 293.42 57.99C293.303 58.6433 293.187 59.3317 293.07 60.055C292.953 60.755 292.825 61.4317 292.685 62.085C292.382 63.6483 292.055 65.2817 291.705 66.985L286.595 68.175Z" fill="#125B50"/>
<rect y="2" width="61" height="66" rx="20" fill="#125B50"/>
<path d="M21 17H30C39.9411 17 48 25.0589 48 35V50C48 51.6569 46.6569 53 45 53H31C21.0589 53 13 44.9411 13 35V25C13 20.5817 16.5817 17 21 17Z" fill="#FF9F45" stroke="white" stroke-width="4"/>
</svg>
